{"title":"Cop.Car.2015.WEBRip.480p.x264.AAC-VYTO [P2PDL]","uid":12330193,"size":321938083,"categoryP":"video","categoryS":"movies","magnet":"?xt=urn:btih:c87346fc7287657291d52d0b708829e7107c2386&amp;dn=Cop.Car.2015.WEBRip.480p.x264.AAC-VYTO+%5BP2PDL%5D&amp;tr=udp%3A%2F%2Ftracker.openbittorrent.com%3A80&amp;tr=udp%3A%2F%2Fopen.demonii.com%3A1337&amp;tr=udp%3A%2F%2Ftracker.coppersurfer.tk%3A6969&amp;tr=udp%3A%2F%2Fexodus.desync.com%3A6969","seeders":4,"leechers":1,"uploader":"ValidusVyto","files":7,"time":1441178173,"description":"____    ____ ____    ____ .___________.  ______   \n     /   /      /   / |           | /  __    \n    /   /      /   /  `---|  |----`|  |  |  | \n        /     _    _/       |  |     |  |  |  | \n       /        |  |         |  |     |  `--'  | \n    __/         |__|         |__|      ______/  \n                                                  \nPresenting Small Encodes with quality for years!\n                                                                                                   \n                                                                                                   \n\nCop.Car.2015.WEBRip.480p.x264.AAC-VYTO\n\n\nGenre: Thriller  &lt;a href=&quot;\nhttp://www.imdb.com/title/tt3813310/&quot; rel=&quot;nofollow&quot; target=&quot;_NEW&quot;&gt;\nhttp://www.imdb.com/title/tt3813310/&lt;/a&gt;\n\n\nGeneral\nFormat                         : MPEG-4\nFile size                      : 301 MiB\nDuration                       : 1h 27mn\nOverall bit rate               : 480 Kbps\n\nVideo\nFormat                         : AVC\nBit rate                       : 445 Kbps\nWidth                          : 720 pixels\nHeight                         : 304 pixels\nDisplay aspect ratio           : 2.35:1\nFrame rate mode                : Constant\nFrame rate                     : 23.976 fps\nColor space                    : YUV\nChroma subsampling             : 4:2:0\nBit depth                      : 8 bits\nStream size                    : 279 MiB (93%)\nWriting library                : x264 core 148 r2597 \n\nAudio\nFormat                         : AAC\nBit rate mode                  : Variable\nBit rate                       : 31.9 Kbps\nChannel(s)                     : 2 channels \nChannel positions              : Front: L R \nSampling rate                  : 48.0 KHz \nStream size                    : 20.1 MiB (7%)\nLanguage                       : English\n\nSubtitle                       : Yes (English)\nSource                     \t   : 1080p.WEB-DL.DD5.1.H264\n\nScreenshots:\n &lt;a href=&quot;\nhttp://ititli.com/VV&quot; rel=&quot;nofollow&quot; target=&quot;_NEW&quot;&gt;\nhttp://ititli.com/VV&lt;/a&gt; &lt;a href=&quot;\nhttp://ititli.com/Vt&quot; rel=&quot;nofollow&quot; target=&quot;_NEW&quot;&gt;\nhttp://ititli.com/Vt&lt;/a&gt; &lt;a href=&quot;\nhttp://ititli.com/VL&quot; rel=&quot;nofollow&quot; target=&quot;_NEW&quot;&gt;\nhttp://ititli.com/VL&lt;/a&gt; &lt;a href=&quot;\nhttp://ititli.com/Vd&quot; rel=&quot;nofollow&quot; target=&quot;_NEW&quot;&gt;\nhttp://ititli.com/Vd&lt;/a&gt; &lt;a href=&quot;\nhttp://ititli.com/V0&quot; rel=&quot;nofollow&quot; target=&quot;_NEW&quot;&gt;\nhttp://ititli.com/V0&lt;/a&gt; &lt;a href=&quot;\nhttp://ititli.com/VA&quot; rel=&quot;nofollow&quot; target=&quot;_NEW&quot;&gt;\nhttp://ititli.com/VA&lt;/a&gt; &lt;a href=&quot;\nhttp://ititli.com/Vl&quot; rel=&quot;nofollow&quot; target=&quot;_NEW&quot;&gt;\nhttp://ititli.com/Vl&lt;/a&gt; &lt;a href=&quot;\nhttp://ititli.com/Vm&quot; rel=&quot;nofollow&quot; target=&quot;_NEW&quot;&gt;\nhttp://ititli.com/Vm&lt;/a&gt; &lt;a href=&quot;\nhttp://ititli.com/Vx&quot; rel=&quot;nofollow&quot; target=&quot;_NEW&quot;&gt;\nhttp://ititli.com/Vx&lt;/a&gt; &lt;a href=&quot;\nhttp://ititli.com/V7&quot; rel=&quot;nofollow&quot; target=&quot;_NEW&quot;&gt;\nhttp://ititli.com/V7&lt;/a&gt; &lt;a href=&quot;\nhttp://ititli.com/VC&quot; rel=&quot;nofollow&quot; target=&quot;_NEW&quot;&gt;\nhttp://ititli.com/VC&lt;/a&gt; &lt;a href=&quot;\nhttp://ititli.com/VF&quot; rel=&quot;nofollow&quot; target=&quot;_NEW&quot;&gt;\nhttp://ititli.com/VF&lt;/a&gt;\n\n----------------------------------------------------------------------------------------------------\n\n\nEncoder Notes: Looking For Early Access To Anything You Can Provide DVDScr, R5, DVDR, BluRay, Direct\nAudio, Music Releases and Seedboxes. If You Got anything to offer please contact us.\n\nSupport us by donating BC - 1FgwdzPsd1y25Gea8wP1qni35uGCtmkRCD","torrent":{"xt":"urn:btih:c87346fc7287657291d52d0b708829e7107c2386","amp;dn":"Cop.Car.2015.WEBRip.480p.x264.AAC-VYTO+%5BP2PDL%5D","amp;tr":["udp%3A%2F%2Ftracker.openbittorrent.com%3A80","udp%3A%2F%2Fopen.demonii.com%3A1337","udp%3A%2F%2Ftracker.coppersurfer.tk%3A6969","udp%3A%2F%2Fexodus.desync.com%3A6969"],"infoHash":"c87346fc7287657291d52d0b708829e7107c2386","infoHashBuffer":{"type":"Buffer","data":[200,115,70,252,114,135,101,114,145,213,45,11,112,136,41,231,16,124,35,134]},"announce":[],"urlList":[]}}